<svg xmlns="http://www.w3.org/2000/svg" xmlns:xlink="http://www.w3.org/1999/xlink" viewBox="0 0 540.96 184.31"><defs><style>.cls-1{font-size:117.12px;fill:#3cb9e9;font-family:PTSans-Narrow, PT Sans Narrow;}.cls-2{letter-spacing:-0.04em;}.cls-3{letter-spacing:-0.01em;}.cls-4{fill:#dc2c73;}.cls-5{fill:url(#Degradado_sin_nombre_13);}.cls-6{fill:#232428;}.cls-7{opacity:0.43;fill:url(#Degradado_sin_nombre_2);}.cls-14,.cls-16,.cls-7{isolation:isolate;}.cls-8{fill:url(#Degradado_sin_nombre_3);}.cls-9{fill:url(#Degradado_sin_nombre_4);}.cls-10{fill:url(#Degradado_sin_nombre_5);}.cls-11{fill:url(#Degradado_sin_nombre_6);}.cls-12{fill:url(#Degradado_sin_nombre_7);}.cls-13{fill:url(#Degradado_sin_nombre_8);}.cls-14{opacity:0.25;fill:url(#Degradado_sin_nombre_9);}.cls-15{fill:url(#Degradado_sin_nombre_10);}.cls-16{opacity:0.17;fill:url(#Degradado_sin_nombre_11);}</style><linearGradient id="Degradado_sin_nombre_13" x1="58.1" y1="413.04" x2="150.61" y2="413.04" gradientTransform="matrix(0.95, -0.32, -0.32, -0.95, 87.88, 517.7)" gradientUnits="userSpaceOnUse"><stop offset="0" stop-color="#262262"/><stop offset="0.5" stop-color="#662d91"/><stop offset="0.67" stop-color="#642c8e"/><stop offset="0.8" stop-color="#5c2a85"/><stop offset="0.91" stop-color="#4e2675"/><stop offset="1" stop-color="#3e2262"/></linearGradient><linearGradient id="Degradado_sin_nombre_2" x1="58.12" y1="411.41" x2="134.87" y2="411.41" gradientTransform="matrix(0.95, -0.32, -0.32, -0.95, 87.88, 517.7)" gradientUnits="userSpaceOnUse"><stop offset="0" stop-color="#92278f" stop-opacity="0"/><stop offset="0.05" stop-color="#942a8f" stop-opacity="0.16"/><stop offset="0.13" stop-color="#982d90" stop-opacity="0.38"/><stop offset="0.22" stop-color="#9b3090" stop-opacity="0.58"/><stop offset="0.32" stop-color="#9d3390" stop-opacity="0.73"/><stop offset="0.43" stop-color="#9f3591" stop-opacity="0.85"/><stop offset="0.55" stop-color="#a03691" stop-opacity="0.94"/><stop offset="0.71" stop-color="#a13791" stop-opacity="0.99"/><stop offset="1" stop-color="#a13791"/></linearGradient><linearGradient id="Degradado_sin_nombre_3" x1="49.81" y1="443.59" x2="173.08" y2="443.59" gradientTransform="matrix(0.95, -0.32, -0.32, -0.95, 87.88, 517.7)" gradientUnits="userSpaceOnUse"><stop offset="0" stop-color="#1c75bc"/><stop offset="0.5" stop-color="#00aeef"/><stop offset="1" stop-color="#4fd5df"/></linearGradient><linearGradient id="Degradado_sin_nombre_4" x1="94.94" y1="317.11" x2="94.94" y2="366.32" gradientTransform="matrix(0.95, -0.32, -0.32, -0.95, 87.88, 517.7)" gradientUnits="userSpaceOnUse"><stop offset="0" stop-color="#da1c5c"/><stop offset="0.5" stop-color="#9e1f63"/><stop offset="1" stop-color="#9e1f63"/></linearGradient><linearGradient id="Degradado_sin_nombre_5" x1="95.19" y1="317.11" x2="95.19" y2="366.32" gradientTransform="matrix(0.95, -0.32, -0.32, -0.95, 87.88, 517.7)" gradientUnits="userSpaceOnUse"><stop offset="0" stop-color="#da1c5c"/><stop offset="1" stop-color="#351840"/></linearGradient><linearGradient id="Degradado_sin_nombre_6" x1="75.11" y1="371.86" x2="161.91" y2="371.86" gradientTransform="matrix(0.95, -0.32, -0.32, -0.95, 87.88, 517.7)" gradientUnits="userSpaceOnUse"><stop offset="0" stop-color="#ee2a7b"/><stop offset="0.5" stop-color="#da1c5c"/><stop offset="1" stop-color="#9e1f63"/></linearGradient><linearGradient id="Degradado_sin_nombre_7" x1="75.11" y1="371.86" x2="162.04" y2="371.86" gradientTransform="matrix(0.95, -0.32, -0.32, -0.95, 87.88, 517.7)" gradientUnits="userSpaceOnUse"><stop offset="0" stop-color="#ee2a7b" stop-opacity="0"/><stop offset="0.02" stop-color="#ee2b7b" stop-opacity="0.09"/><stop offset="0.07" stop-color="#ef2d7a" stop-opacity="0.3"/><stop offset="0.12" stop-color="#f02f79" stop-opacity="0.49"/><stop offset="0.18" stop-color="#f13078" stop-opacity="0.65"/><stop offset="0.23" stop-color="#f13278" stop-opacity="0.77"/><stop offset="0.29" stop-color="#f13378" stop-opacity="0.87"/><stop offset="0.35" stop-color="#f23377" stop-opacity="0.94"/><stop offset="0.42" stop-color="#f23477" stop-opacity="0.99"/><stop offset="0.5" stop-color="#f23477"/><stop offset="0.56" stop-color="#f13477" stop-opacity="0.98"/><stop offset="0.63" stop-color="#ec3376" stop-opacity="0.93"/><stop offset="0.69" stop-color="#e53174" stop-opacity="0.84"/><stop offset="0.76" stop-color="#db2e71" stop-opacity="0.72"/><stop offset="0.82" stop-color="#ce2b6e" stop-opacity="0.57"/><stop offset="0.89" stop-color="#bd276a" stop-opacity="0.37"/><stop offset="0.96" stop-color="#ab2266" stop-opacity="0.15"/><stop offset="1" stop-color="#9e1f63" stop-opacity="0"/></linearGradient><linearGradient id="Degradado_sin_nombre_8" x1="49.81" y1="443.59" x2="171.56" y2="443.59" gradientTransform="matrix(0.95, -0.32, -0.32, -0.95, 87.88, 517.7)" gradientUnits="userSpaceOnUse"><stop offset="0" stop-color="#d9e8bc"/><stop offset="1" stop-color="#4fd5df"/></linearGradient><linearGradient id="Degradado_sin_nombre_9" x1="82.55" y1="390.64" x2="147.19" y2="502.59" gradientTransform="matrix(0.95, -0.32, -0.32, -0.95, 87.88, 517.7)" gradientUnits="userSpaceOnUse"><stop offset="0" stop-color="#1c75bc" stop-opacity="0"/><stop offset="0.06" stop-color="#458ec5" stop-opacity="0.18"/><stop offset="0.15" stop-color="#7db0d2" stop-opacity="0.43"/><stop offset="0.24" stop-color="#abccdc" stop-opacity="0.63"/><stop offset="0.32" stop-color="#d0e2e4" stop-opacity="0.79"/><stop offset="0.39" stop-color="#eaf2ea" stop-opacity="0.91"/><stop offset="0.45" stop-color="#f9fcee" stop-opacity="0.98"/><stop offset="0.5" stop-color="#ffffef"/><stop offset="0.59" stop-color="#fdffef" stop-opacity="0.99"/><stop offset="0.66" stop-color="#f6fdee" stop-opacity="0.95"/><stop offset="0.72" stop-color="#ecfaed" stop-opacity="0.89"/><stop offset="0.77" stop-color="#dcf7ec" stop-opacity="0.8"/><stop offset="0.82" stop-color="#c8f2ea" stop-opacity="0.69"/><stop offset="0.87" stop-color="#afece8" stop-opacity="0.55"/><stop offset="0.92" stop-color="#92e5e5" stop-opacity="0.38"/><stop offset="0.96" stop-color="#71dde2" stop-opacity="0.19"/><stop offset="1" stop-color="#4fd5df" stop-opacity="0"/></linearGradient><linearGradient id="Degradado_sin_nombre_10" x1="75.06" y1="371.86" x2="157.47" y2="371.86" gradientTransform="matrix(0.95, -0.32, -0.32, -0.95, 87.88, 517.7)" gradientUnits="userSpaceOnUse"><stop offset="0" stop-color="#ee2a7b" stop-opacity="0"/><stop offset="0.25" stop-color="#d32673" stop-opacity="0.34"/><stop offset="0.49" stop-color="#bc236c" stop-opacity="0.62"/><stop offset="0.7" stop-color="#ac2167" stop-opacity="0.83"/><stop offset="0.88" stop-color="#a21f64" stop-opacity="0.95"/><stop offset="1" stop-color="#9e1f63"/></linearGradient><linearGradient id="Degradado_sin_nombre_11" x1="78.47" y1="371.84" x2="162.07" y2="371.84" gradientTransform="matrix(0.95, -0.32, -0.32, -0.95, 87.88, 517.7)" gradientUnits="userSpaceOnUse"><stop offset="0" stop-color="#ee2a7b" stop-opacity="0"/><stop offset="0.03" stop-color="#f0478d" stop-opacity="0.14"/><stop offset="0.08" stop-color="#f472a8" stop-opacity="0.34"/><stop offset="0.13" stop-color="#f798bf" stop-opacity="0.51"/><stop offset="0.18" stop-color="#f9b8d3" stop-opacity="0.66"/><stop offset="0.24" stop-color="#fbd1e3" stop-opacity="0.79"/><stop offset="0.3" stop-color="#fde6ef" stop-opacity="0.88"/><stop offset="0.36" stop-color="#fef4f8" stop-opacity="0.95"/><stop offset="0.42" stop-color="#fffcfd" stop-opacity="0.99"/><stop offset="0.5" stop-color="#fff"/><stop offset="0.56" stop-color="#fdfbfc" stop-opacity="0.98"/><stop offset="0.62" stop-color="#f9f0f5" stop-opacity="0.93"/><stop offset="0.69" stop-color="#f1dee8" stop-opacity="0.85"/><stop offset="0.75" stop-color="#e5c4d6" stop-opacity="0.74"/><stop offset="0.82" stop-color="#d7a3bf" stop-opacity="0.59"/><stop offset="0.88" stop-color="#c57aa2" stop-opacity="0.41"/><stop offset="0.95" stop-color="#b14b82" stop-opacity="0.2"/><stop offset="1" stop-color="#9e1f63" stop-opacity="0"/></linearGradient></defs><title>Recurso 3</title><g id="Capa_2" data-name="Capa 2"><g id="Capa_1-2" data-name="Capa 1"><text class="cls-1" transform="translate(122.96 139.59)"><tspan class="cls-2">K</tspan><tspan x="52.7" y="0">yS</tspan><tspan class="cls-3" x="146.87" y="0">e</tspan><tspan x="194.3" y="0">guros</tspan></text><circle class="cls-4" cx="406.96" cy="72.5" r="4"/><circle class="cls-4" cx="377.96" cy="72.5" r="4"/><path class="cls-5" d="M18.18,87.53s10,5,57.42-6.16c10.61-2.51,17.64-4,24.28-3,0,0,5.87,6.15-7.24,11.79S61.17,109.3,61.17,109.3s-26.49,6.8-29,6.6-13.34,1.15-19.36-8.54S18.18,87.53,18.18,87.53Z"/><path class="cls-6" d="M21.05,87.53s10,5.07,57.42-6.16c10.54-2.5,17.64-4,24.27-3,0,0,5.88,6.15-7.24,11.79S64,109.3,64,109.3s-26.49,6.8-29,6.6-13.34,1.15-19.37-8.54S21.05,87.53,21.05,87.53Z"/><path class="cls-7" d="M47.76,102.33c-28.14,7.09-27.3.45-27.3.45s-3.2-5.06-6.27-10.51c-2.55,3.85-4.8,9.54-1.35,15.09,6,9.69,16.89,8.35,19.36,8.54s29-6.6,29-6.6S75.84,98.5,88.32,92.18C78.15,94.32,63.78,98.3,47.76,102.33Z"/><path class="cls-8" d="M96.29,0S119.1,25.75,73.85,59.33c-48.52,36-61.08,57-41.14,56.56,0,0-28,6.87-32.3-19.9-2.56-15.77,7.8-25.24,20.74-35.94C21.15,60.05,66,28.05,96.29,0Z"/><path class="cls-9" d="M72.57,136.7S57.23,162.93,85.5,183.76a.33.33,0,0,1,0,.44.32.32,0,0,1-.33.1,113.92,113.92,0,0,1-17.46-7.85C50.08,166.66,63.7,146.38,72.57,136.7Z"/><path class="cls-10" d="M72.57,136.7S57.23,162.93,85.5,183.76a.33.33,0,0,1,0,.44.32.32,0,0,1-.33.1c-4.48-1.46-15-5.45-19.46-9.63C51,160.85,63.7,146.38,72.57,136.7Z"/><path class="cls-11" d="M116.39,92.06c-1-12.3-17.7-13.85-17.7-13.85,10.06,5.51-21,12.13-43.67,37.53-16.09,18-9.68,36.46-9.68,36.46h0c5,16.87,22.36,24.23,22.36,24.23C39.93,136.4,118.06,114.73,116.39,92.06Z"/><path class="cls-12" d="M116.39,92.06c-.47-12.47-17.7-13.85-17.7-13.85,10.06,5.51-21,12.13-43.67,37.53-16.09,18-9.68,36.46-9.68,36.46h0c5,16.87,22.36,24.23,22.36,24.23C39.93,136.4,116,115.62,116.39,92.06Z"/><path class="cls-13" d="M48.1,56.09C100.36,18.79,96.29,0,96.29,0,69.5,25.56,21.15,60.05,21.15,60.05,7.67,71.23-2.15,80.22.41,96c4.34,26.77,32.3,19.9,32.3,19.9C0,121.54-5.88,94.61,48.1,56.09Z"/><path class="cls-14" d="M96.29,0h0s4.07,18.79-48.19,56.09C6.81,85.55.65,108.5,14.59,114.93a31.6,31.6,0,0,0,12.8,1.67,50.32,50.32,0,0,0,5.32-.71c-19.94.41-7.38-20.56,41.14-56.56C119.1,25.75,96.29,0,96.29,0Z"/><path class="cls-15" d="M104.16,95c9.28-6.84,4.52-12.57,4-13.1a24.43,24.43,0,0,0-9.51-3.67c10.06,5.51-21,12.13-43.67,37.53-16.09,18-9.68,36.46-9.68,36.46h0c5,16.87,22.36,24.23,22.36,24.23C16.36,146.4,94.11,102.4,104.16,95Z"/><path class="cls-16" d="M98.69,78.21a24.43,24.43,0,0,1,9.51,3.67c.48.53,5.24,6.26-4,13.1-10,7.42-89,49.93-36.42,81.47-27.81-40,48.3-60.83,48.65-84.39C115.92,79.59,98.69,78.21,98.69,78.21Z"/></g></g></svg>